# xmcd
#
# Track frame offsets:
#	150
#	15120
#	31179
#	46194
#	62927
#	79776
#	95987
#	114805
#	131866
#
# Disc length: 1955 seconds
#
# Revision: 0
# Processed by: cddbd v1.5.2PL0 Copyright (c) Steve Scherf et al.
# Submitted via: audiograbber 1.82.02
#
DISCID=6a07a109
DTITLE=Clay Smith - Untitled Master
DYEAR=2007
DGENRE=Country
TTITLE0=Sinful Darkness
TTITLE1=Coldwind
TTITLE2=I Am Blind
TTITLE3=My Feet
TTITLE4=The Streets
TTITLE5=I Believe
TTITLE6=Voodo Lady
TTITLE7=Ode 2 Socrules
TTITLE8=Sinful Darkness Part 2
EXTD=
EXTT0=
EXTT1=
EXTT2=
EXTT3=
EXTT4=
EXTT5=
EXTT6=
EXTT7=
EXTT8=
PLAYORDER=
